<svg id="Layer_1" data-name="Layer 1" xmlns="http://www.w3.org/2000/svg" viewBox="0 0 969.11 175"><defs><style>.cls-1,.cls-3{fill:#29abe2;}.cls-2{fill:#fff;stroke:#fff;}.cls-2,.cls-3{stroke-miterlimit:10;stroke-width:10px;}.cls-3{stroke:#29abe2;}</style></defs><title>logo</title><rect class="cls-1" width="443" height="175"/><path class="cls-2" d="M137.87,267.69a174.22,174.22,0,0,1,27.75-2.25c18.75,0,32.1,4.66,40.95,13.52,9,8.85,14.25,21.41,14.25,39,0,17.71-5.1,32.2-14.55,42.18-9.45,10.14-25.05,15.62-44.7,15.62a197.38,197.38,0,0,1-23.7-1.29Zm13,95.95a76.19,76.19,0,0,0,13.2.81c27.9,0,43-16.75,43-46.05.15-25.59-13.35-41.86-40.95-41.86a69.55,69.55,0,0,0-15.3,1.45Z" transform="translate(-112 -240)"/><path class="cls-2" d="M252,274.93a8.09,8.09,0,0,1-8.4,8.7c-4.65,0-8-3.87-8-8.7,0-5,3.45-8.85,8.25-8.85C248.87,266.08,252,269.94,252,274.93Zm-14.7,99.82V296.83h13.2v77.92Z" transform="translate(-112 -240)"/><path class="cls-2" d="M335,296.83c-.3,5.63-.6,11.91-.6,21.41v45.24c0,17.87-3.3,28.82-10.35,35.58-7,7.09-17.25,9.34-26.4,9.34-8.7,0-18.3-2.25-24.15-6.44l3.3-10.79a38.86,38.86,0,0,0,21.3,6.12c13.5,0,23.4-7.57,23.4-27.21v-8.69h-.3c-4.05,7.24-11.85,13-23.1,13-18,0-30.9-16.42-30.9-38,0-26.41,16.05-41.38,32.7-41.38,12.6,0,19.5,7.08,22.65,13.52h.3l.6-11.75Zm-13.65,30.75a21.58,21.58,0,0,0-.75-6.44c-2.4-8.21-8.85-15-18.45-15-12.6,0-21.6,11.43-21.6,29.46,0,15.29,7.2,28,21.45,28,8.1,0,15.45-5.47,18.3-14.49a26.28,26.28,0,0,0,1.05-7.56Z" transform="translate(-112 -240)"/><path class="cls-2" d="M370.07,274.93a8.09,8.09,0,0,1-8.4,8.7c-4.65,0-7.95-3.87-7.95-8.7,0-5,3.45-8.85,8.25-8.85S370.07,269.94,370.07,274.93Zm-14.7,99.82V296.83h13.2v77.92Z" transform="translate(-112 -240)"/><path class="cls-2" d="M406.37,274.45v22.38h18.9v10.79h-18.9v42c0,9.66,2.55,15.13,9.9,15.13a27.18,27.18,0,0,0,7.65-1l.6,10.63a30.27,30.27,0,0,1-11.7,1.93c-6.15,0-11.1-2.09-14.25-5.95-3.75-4.19-5.1-11.11-5.1-20.29v-42.5H382.22V296.83h11.25V278.15Z" transform="translate(-112 -240)"/><path class="cls-2" d="M480.31,374.75l-1.05-9.82h-.45a26.48,26.48,0,0,1-22.2,11.59c-14.69,0-22.19-11.11-22.19-22.38,0-18.83,15.6-29.14,43.64-29v-1.61c0-6.44-1.65-18-16.5-18a34.36,34.36,0,0,0-18.89,5.8l-3-9.34c6-4.18,14.7-6.92,23.84-6.92,22.2,0,27.6,16.26,27.6,31.88v29.14a117.53,117.53,0,0,0,1.2,18.67ZM478.36,335c-14.4-.33-30.74,2.41-30.74,17.54,0,9.18,5.69,13.53,12.44,13.53,9.45,0,15.45-6.44,17.55-13a15.78,15.78,0,0,0,.75-4.51Z" transform="translate(-112 -240)"/><path class="cls-2" d="M512.42,260.45h13.19v114.3H512.42Z" transform="translate(-112 -240)"/><path class="cls-3" d="M580.06,267.53a140.92,140.92,0,0,1,25.05-2.09c12.9,0,22.35,3.22,28.35,9,5.55,5.15,8.85,13,8.85,22.7,0,9.82-2.7,17.55-7.8,23.19-6.9,7.88-18.15,11.91-30.9,11.91a41.7,41.7,0,0,1-10.5-1v43.47H580.06Zm13.05,52.32a40.67,40.67,0,0,0,10.8,1.13c15.75,0,25.35-8.21,25.35-23.18,0-14.33-9.45-21.26-23.85-21.26a51.32,51.32,0,0,0-12.3,1.13Z" transform="translate(-112 -240)"/><path class="cls-3" d="M695.71,374.75l-1.05-9.82h-.45A26.48,26.48,0,0,1,672,376.52c-14.7,0-22.2-11.11-22.2-22.38,0-18.83,15.6-29.14,43.65-29v-1.61c0-6.44-1.65-18-16.5-18a34.39,34.39,0,0,0-18.9,5.8l-3-9.34c6-4.18,14.7-6.92,23.85-6.92,22.2,0,27.6,16.26,27.6,31.88v29.14a117.53,117.53,0,0,0,1.2,18.67Zm-2-39.76c-14.4-.33-30.75,2.41-30.75,17.54,0,9.18,5.7,13.53,12.45,13.53,9.45,0,15.45-6.44,17.55-13a15.78,15.78,0,0,0,.75-4.51Z" transform="translate(-112 -240)"/><path class="cls-3" d="M743.11,274.45v22.38H762v10.79h-18.9v42c0,9.66,2.55,15.13,9.9,15.13a27.18,27.18,0,0,0,7.65-1l.6,10.63a30.27,30.27,0,0,1-11.7,1.93c-6.15,0-11.1-2.09-14.25-5.95-3.75-4.19-5.1-11.11-5.1-20.29v-42.5H719V296.83h11.25V278.15Z" transform="translate(-112 -240)"/><path class="cls-3" d="M792.76,274.45v22.38h18.9v10.79h-18.9v42c0,9.66,2.55,15.13,9.9,15.13a27.18,27.18,0,0,0,7.65-1l.6,10.63a30.27,30.27,0,0,1-11.7,1.93c-6.15,0-11.1-2.09-14.25-5.95-3.75-4.19-5.1-11.11-5.1-20.29v-42.5H768.61V296.83h11.25V278.15Z" transform="translate(-112 -240)"/><path class="cls-3" d="M833,338.37c.3,19.16,11.7,27,24.9,27,9.45,0,15.15-1.77,20.1-4l2.25,10.14c-4.65,2.26-12.6,4.83-24.15,4.83-22.35,0-35.7-15.78-35.7-39.28s12.9-42,34-42c23.7,0,30,22.38,30,36.71a57.42,57.42,0,0,1-.45,6.6Zm38.7-10.15c.15-9-3.45-23-18.3-23-13.35,0-19.2,13.2-20.25,23Z" transform="translate(-112 -240)"/><path class="cls-3" d="M900.76,321.14c0-9.18-.15-17.07-.6-24.31h11.55l.45,15.29h.6c3.3-10.46,11.25-17.06,20.1-17.06a13.43,13.43,0,0,1,3.75.48V308.9a18.64,18.64,0,0,0-4.5-.48c-9.3,0-15.9,7.57-17.7,18.19a42.87,42.87,0,0,0-.6,6.61v41.53h-13Z" transform="translate(-112 -240)"/><path class="cls-3" d="M950.41,317.92c0-8.05-.15-14.65-.6-21.09h11.7l.75,12.88h.3a26.47,26.47,0,0,1,24-14.65c10.05,0,25.65,6.44,25.65,33.16v46.53H999V329.83c0-12.55-4.35-23-16.8-23-8.7,0-15.45,6.6-17.7,14.49a21.76,21.76,0,0,0-.9,6.6v46.85h-13.2Z" transform="translate(-112 -240)"/><path class="cls-3" d="M1031.86,360.26a32.92,32.92,0,0,0,17.4,5.64c9.6,0,14.1-5.15,14.1-11.59,0-6.77-3.75-10.47-13.5-14.33-13-5-19.2-12.72-19.2-22.06,0-12.56,9.45-22.86,25-22.86a34.29,34.29,0,0,1,17.85,4.83l-3.3,10.3a26.9,26.9,0,0,0-14.85-4.5c-7.8,0-12.15,4.82-12.15,10.62,0,6.44,4.35,9.34,13.8,13.2,12.6,5.15,19,11.92,19,23.51,0,13.68-9.9,23.34-27.15,23.34-8,0-15.3-2.09-20.4-5.31Z" transform="translate(-112 -240)"/></svg>